<svg width="179" height="151" viewBox="0 0 179 151" fill="none" xmlns="http://www.w3.org/2000/svg">
<g clip-path="url(#clip0_528_322)">
<path d="M110.219 110.031V127.297C110.219 131.876 108.4 136.268 105.162 139.506C101.924 142.743 97.5323 144.562 92.9531 144.562H23.8906C19.3115 144.562 14.9199 142.743 11.682 139.506C8.44405 136.268 6.625 131.876 6.625 127.297V23.7031C6.625 19.124 8.44405 14.7324 11.682 11.4945C14.9199 8.25655 19.3115 6.4375 23.8906 6.4375H89.5C99.0349 6.4375 110.219 14.1682 110.219 23.7031V40.9688M137.844 110.031L172.375 75.5L137.844 40.9688M54.9688 75.5H165.469" stroke="white" stroke-width="12" stroke-linecap="round" stroke-linejoin="round"/>
</g>
<defs>
<clipPath id="clip0_528_322">
<rect width="179" height="151" fill="white"/>
</clipPath>
</defs>
</svg>
